<svg xmlns="http://www.w3.org/2000/svg" viewBox="0 0 24 24"><path fill="#fff" d="M20.52 3.48A11.78 11.78 0 0012.04 0C5.64 0 .44 5.2.44 11.6c0 2.04.53 4.07 1.55 5.86L0 24l6.74-1.96a11.53 11.53 0 005.3 1.35h.01c6.4 0 11.6-5.2 11.6-11.6 0-3.1-1.21-6.02-3.13-8.31zM12.05 21.2h-.01a9.58 9.58 0 01-4.87-1.33l-.35-.2-4 1.17 1.14-3.9-.22-.4a9.55 9.55 0 01-1.44-5.03c0-5.28 4.3-9.58 9.6-9.58 2.56 0 4.96.99 6.77 2.8a9.5 9.5 0 012.83 6.78c0 5.28-4.3 9.59-9.45 9.59zm5.52-7.16c-.3-.15-1.78-.88-2.06-.98-.28-.1-.48-.16-.68.15-.2.3-.78.98-.96 1.18-.18.2-.36.22-.67.08-.3-.15-1.26-.47-2.4-1.5-.88-.78-1.48-1.74-1.66-2.03-.18-.3-.02-.47.13-.62.14-.14.3-.36.45-.54.15-.18.2-.3.3-.5.1-.2.04-.38-.02-.54-.06-.15-.68-1.64-.93-2.25-.24-.58-.48-.5-.67-.5h-.58c-.2 0-.52.07-.8.38-.28.3-1.06 1.04-1.06 2.54s1.08 2.94 1.23 3.14c.15.2 2.12 3.22 5.16 4.52.72.31 1.28.49 1.72.63.72.23 1.38.2 1.9.12.58-.09 1.78-.72 2.03-1.42.25-.7.25-1.3.18-1.42-.07-.12-.25-.2-.55-.35z"/></svg>